<svg width="167" height="79" viewBox="0 0 167 79" fill="none" xmlns="http://www.w3.org/2000/svg">
<path d="M0.410393 0.0912341H20.6377L42.0013 52.2124H42.9104L64.274 0.0912341H84.5013V77.667H68.5922V27.1746H67.9483L47.8725 77.2882H37.0392L16.9634 26.9852H16.3195V77.667H0.410393V0.0912341ZM132.925 19.4852V31.6064H97.8873V19.4852H132.925ZM105.842 5.54578H121.978V59.7882C121.978 61.2781 122.205 62.4397 122.66 63.2731C123.115 64.0811 123.746 64.6493 124.554 64.9776C125.387 65.3059 126.347 65.47 127.433 65.47C128.19 65.47 128.948 65.4069 129.705 65.2806C130.463 65.1291 131.044 65.0155 131.448 64.9397L133.986 76.9473C133.178 77.1998 132.041 77.4902 130.577 77.8185C129.112 78.172 127.332 78.3867 125.236 78.4624C121.347 78.614 117.938 78.0963 115.009 76.9094C112.104 75.7225 109.844 73.8791 108.228 71.3791C106.612 68.8791 105.817 65.7225 105.842 61.9094V5.54578ZM157.135 78.6518C154.635 78.6518 152.489 77.768 150.696 76.0003C148.928 74.2074 148.044 72.0609 148.044 69.5609C148.044 67.0862 148.928 64.965 150.696 63.1973C152.489 61.4296 154.635 60.5458 157.135 60.5458C159.559 60.5458 161.68 61.4296 163.499 63.1973C165.317 64.965 166.226 67.0862 166.226 69.5609C166.226 71.2276 165.797 72.7554 164.938 74.1443C164.105 75.5079 163.006 76.6064 161.643 77.4397C160.279 78.2478 158.776 78.6518 157.135 78.6518Z" fill="#F6F6F6"/>
</svg>
